<svg width="47.364" height="47.364" viewBox="0 0 181 181" fill="none" xmlns="http://www.w3.org/2000/svg">
<circle cx="90.2638" cy="90.5342" r="88.6952" fill="#FAFAFA" stroke="#369643" stroke-width="3"/>
<path d="M90.0852 52.2501C100.27 52.2501 108.556 60.7984 108.556 71.3048C108.556 81.8113 100.27 90.3592 90.0852 90.3592C79.9009 90.3592 71.6155 81.8113 71.6155 71.3048C71.6155 60.7984 79.9009 52.2501 90.0852 52.2501V52.2501ZM90.0852 94.6948C102.587 94.6948 112.758 84.2022 112.758 71.3048C112.758 58.4074 102.587 47.9149 90.0852 47.9149C77.584 47.9149 67.4132 58.4074 67.4132 71.3048C67.4132 84.2022 77.584 94.6948 90.0852 94.6948Z" fill="#369643" stroke="#369643"/>
<path d="M90.0853 83.0028C97.2635 83.0028 103.082 76.9998 103.082 69.5942C103.082 68.626 102.978 67.6836 102.789 66.7734C102.046 67.0219 101.218 67.1592 100.304 67.1592C94.2698 67.1592 91.9694 61.2031 93.3805 56.6377C92.3261 56.3531 91.2259 56.186 90.0853 56.186C82.9072 56.186 77.0883 62.1893 77.0883 69.5942C77.0883 76.9998 82.9072 83.0028 90.0853 83.0028" fill="#369643"/>
<path d="M90.0853 83.0028C97.2635 83.0028 103.082 76.9998 103.082 69.5942C103.082 68.626 102.978 67.6836 102.789 66.7734C102.046 67.0219 101.218 67.1592 100.304 67.1592C94.2698 67.1592 91.9694 61.2031 93.3805 56.6377C92.3261 56.3531 91.2259 56.186 90.0853 56.186C82.9072 56.186 77.0883 62.1893 77.0883 69.5942C77.0883 76.9998 82.9072 83.0028 90.0853 83.0028" stroke="#369643"/>
<path d="M143.267 81.7945C141.426 82.2191 134.042 81.8845 118.581 79.5853C116.953 79.3479 115.345 80.0405 114.372 81.4014C113.404 82.7557 113.237 84.5409 113.935 86.0595C116.958 92.6349 123.522 109.529 119.19 124.366C117.036 131.744 113.595 136.242 109.24 137.372C105.024 138.468 101.094 136.247 99.949 135.065C96.252 131.252 93.0232 130.726 90.0847 130.726C87.2871 130.726 83.9273 131.242 80.2218 135.065C79.0768 136.246 75.147 138.465 70.9309 137.372C66.575 136.242 63.1336 131.744 60.979 124.366C56.647 109.528 63.2117 92.6342 66.2354 86.0595C66.9341 84.5402 66.766 82.7553 65.7978 81.4014C64.9526 80.2188 63.6244 79.5384 62.2258 79.5384C62.0149 79.5384 61.802 79.554 61.5894 79.5853C46.1289 81.8834 38.7429 82.2198 36.9037 81.7945C34.7393 77.9853 29.4855 55.7015 30.1938 51.2157C34.148 49.7843 56.3587 42.3353 90.0847 42.3353C123.814 42.3353 146.022 49.7843 149.976 51.2157C150.685 55.7015 145.431 77.9853 143.267 81.7945ZM154.017 50.0213C153.672 48.3452 152.794 47.6735 152.118 47.4049C151.881 47.311 127.983 38 90.0847 38C52.1907 38 28.2896 47.311 28.0528 47.4049C27.377 47.6735 26.4983 48.3449 26.1535 50.0213C24.9315 55.9618 31.3261 82.2556 34.024 85.0389C34.9828 86.0276 36.5873 87.6817 62.1887 83.8768C62.2268 83.8705 62.3305 83.8552 62.4161 83.9744C62.4932 84.0825 62.4562 84.1635 62.4387 84.2014C58.4236 92.9317 52.3726 109.92 56.9556 125.617C60.2454 136.884 65.8137 140.515 69.9055 141.577C75.6975 143.079 81.129 140.26 83.1933 138.13C85.938 135.299 88.1023 135.062 90.0847 135.062C92.0668 135.062 94.2322 135.299 96.9776 138.13C98.6373 139.843 102.473 142 106.921 142C108.007 142 109.129 141.871 110.265 141.577C114.357 140.515 119.925 136.884 123.214 125.617C127.797 109.922 121.747 92.9324 117.732 84.2014C117.714 84.1628 117.677 84.0825 117.754 83.9744C117.84 83.8556 117.943 83.8709 117.981 83.8768C143.585 87.6828 145.187 86.0272 146.146 85.0385C148.844 82.2556 155.239 55.9618 154.017 50.0213" fill="#369643"/>
<path d="M154.017 50.0213C153.672 48.3452 152.794 47.6735 152.118 47.4049C151.881 47.311 127.983 38 90.0847 38C52.1907 38 28.2896 47.311 28.0528 47.4049C27.377 47.6735 26.4983 48.3449 26.1535 50.0213C24.9315 55.9618 31.3261 82.2556 34.024 85.0389C34.9828 86.0276 36.5873 87.6817 62.1887 83.8768C62.2268 83.8705 62.3305 83.8552 62.4161 83.9744C62.4932 84.0825 62.4562 84.1635 62.4387 84.2014C58.4236 92.9317 52.3726 109.92 56.9556 125.617C60.2454 136.884 65.8137 140.515 69.9055 141.577C75.6975 143.079 81.129 140.26 83.1933 138.13C85.938 135.299 88.1023 135.062 90.0847 135.062C92.0668 135.062 94.2322 135.299 96.9776 138.13C98.6373 139.843 102.473 142 106.921 142C108.007 142 109.129 141.871 110.265 141.577C114.357 140.515 119.925 136.884 123.214 125.617C127.797 109.922 121.747 92.9324 117.732 84.2014C117.714 84.1628 117.677 84.0825 117.754 83.9744C117.84 83.8556 117.943 83.8709 117.981 83.8768C143.585 87.6828 145.187 86.0272 146.146 85.0385C148.844 82.2556 155.239 55.9618 154.017 50.0213M143.267 81.7945C141.426 82.2191 134.042 81.8845 118.581 79.5853C116.953 79.3479 115.345 80.0405 114.372 81.4014C113.404 82.7557 113.237 84.5409 113.935 86.0595C116.958 92.6349 123.522 109.529 119.19 124.366C117.036 131.744 113.595 136.242 109.24 137.372C105.024 138.468 101.094 136.247 99.949 135.065C96.252 131.252 93.0232 130.726 90.0847 130.726C87.2871 130.726 83.9273 131.242 80.2218 135.065C79.0768 136.246 75.147 138.465 70.9309 137.372C66.575 136.242 63.1336 131.744 60.979 124.366C56.647 109.528 63.2117 92.6342 66.2354 86.0595C66.9341 84.5402 66.766 82.7553 65.7978 81.4014C64.9526 80.2188 63.6244 79.5384 62.2258 79.5384C62.0149 79.5384 61.802 79.554 61.5894 79.5853C46.1289 81.8834 38.7429 82.2198 36.9037 81.7945C34.7393 77.9853 29.4855 55.7015 30.1938 51.2157C34.148 49.7843 56.3587 42.3353 90.0847 42.3353C123.814 42.3353 146.022 49.7843 149.976 51.2157C150.685 55.7015 145.431 77.9853 143.267 81.7945Z" stroke="#369643" stroke-width="3"/>
<path d="M104.49 104.534C101.77 104.912 99.8932 104.274 97.7198 103.537C95.6572 102.838 93.3187 102.046 90.0856 102.046C86.853 102.046 84.5149 102.838 82.4523 103.537C80.2789 104.274 78.4043 104.911 75.6818 104.534C70.9256 103.877 68.2887 98.6747 68.2631 98.6222L64.5128 100.578C64.6577 100.876 68.1448 107.867 75.1242 108.831C75.8899 108.937 76.6058 108.984 77.2815 108.984C79.848 108.984 81.8321 108.311 83.764 107.656C85.6986 107 87.5261 106.381 90.0856 106.381C92.6457 106.381 94.4735 107 96.4081 107.656C98.3403 108.311 100.323 108.984 102.89 108.984C103.565 108.984 104.282 108.937 105.048 108.831C112.027 107.867 115.514 100.876 115.66 100.579L111.91 98.6222C111.883 98.6747 109.246 103.877 104.49 104.534Z" fill="#369643" stroke="#369643"/>
</svg>
